<?xml version="1.0" encoding="UTF-8" standalone="no"?>
<!-- Created with Inkscape (http://www.inkscape.org/) -->

<svg
   width="1920"
   height="1080"
   version="1.1"
   viewBox="0 0 508 285.75"
   xml:space="preserve"
   id="svg125"
   sodipodi:docname="ion-cover.svg"
   inkscape:version="1.2.1 (9c6d41e410, 2022-07-14)"
   xmlns:inkscape="http://www.inkscape.org/namespaces/inkscape"
   xmlns:sodipodi="http://sodipodi.sourceforge.net/DTD/sodipodi-0.dtd"
   xmlns:xlink="http://www.w3.org/1999/xlink"
   xmlns="http://www.w3.org/2000/svg"
   xmlns:svg="http://www.w3.org/2000/svg"><sodipodi:namedview
     id="namedview127"
     pagecolor="#ffffff"
     bordercolor="#000000"
     borderopacity="0.25"
     inkscape:showpageshadow="2"
     inkscape:pageopacity="0.0"
     inkscape:pagecheckerboard="0"
     inkscape:deskcolor="#d1d1d1"
     showgrid="false"
     inkscape:zoom="0.43703704"
     inkscape:cx="851.18643"
     inkscape:cy="434.74576"
     inkscape:window-width="1920"
     inkscape:window-height="1043"
     inkscape:window-x="0"
     inkscape:window-y="0"
     inkscape:window-maximized="1"
     inkscape:current-layer="svg125"
     showguides="false"><sodipodi:guide
       position="508,285.75"
       orientation="0.49026124,-0.87157554"
       id="guide949"
       inkscape:locked="false" /><sodipodi:guide
       position="-1.4210855e-14,285.75"
       orientation="0.49026124,0.87157554"
       id="guide1012"
       inkscape:locked="false" /><sodipodi:guide
       position="166.4857,189.491"
       orientation="0,-1"
       id="guide1014"
       inkscape:locked="false" /><sodipodi:guide
       position="139.12738,99.105271"
       orientation="0,-1"
       id="guide1016"
       inkscape:locked="false" /></sodipodi:namedview><defs
     id="defs47"><linearGradient
       id="dark_blue"><stop
         stop-color="#1942ff"
         offset="0"
         id="stop2" /></linearGradient><linearGradient
       id="light_blue"
       gradientTransform="scale(.26458)"><stop
         stop-color="#4fb3ff"
         offset="0"
         id="stop5" /></linearGradient><linearGradient
       id="white"
       gradientTransform="scale(.26458)"><stop
         stop-color="#fff"
         offset="0"
         id="stop8" /></linearGradient><filter
       id="filter1307"
       x="-0.059597836"
       y="-0.15588174"
       width="1.1191957"
       height="1.3118494"
       color-interpolation-filters="sRGB"><feGaussianBlur
         stdDeviation="13.887288"
         id="feGaussianBlur11" /></filter><filter
       id="filter1315"
       x="-0.019168661"
       y="-0.050078508"
       width="1.0383373"
       height="1.1002429"
       color-interpolation-filters="sRGB"><feGaussianBlur
         stdDeviation="2.4651534"
         id="feGaussianBlur14" /></filter><filter
       id="filter13039"
       x="-0.22075959"
       y="-0.2253339"
       width="1.4432911"
       height="1.4512329"
       color-interpolation-filters="sRGB"><feGaussianBlur
         stdDeviation="1.802847"
         id="feGaussianBlur17" /></filter><filter
       id="filter13045"
       x="-0.60707972"
       y="-0.597036"
       width="2.216999"
       height="2.1949724"
       color-interpolation-filters="sRGB"><feGaussianBlur
         stdDeviation="7.4187277"
         id="feGaussianBlur20" /></filter><filter
       id="filter3118"
       x="-0.018518649"
       y="-0.051494674"
       width="1.0370373"
       height="1.1030219"
       color-interpolation-filters="sRGB"><feGaussianBlur
         stdDeviation="2.7584246"
         id="feGaussianBlur23" /></filter><filter
       id="filter3126"
       x="-0.063010731"
       y="-0.17529205"
       width="1.1260215"
       height="1.3506163"
       color-interpolation-filters="sRGB"><feGaussianBlur
         stdDeviation="13.725414"
         id="feGaussianBlur26" /></filter><linearGradient
       id="linearGradient2747"
       x1="150.97"
       x2="240.87"
       y1="72.292"
       y2="72.292"
       gradientUnits="userSpaceOnUse"
       xlink:href="#light_blue" /><linearGradient
       id="linearGradient2753"
       x1="275.2"
       x2="365.1"
       y1="72.292"
       y2="72.292"
       gradientUnits="userSpaceOnUse"
       xlink:href="#dark_blue" /><linearGradient
       id="linearGradient2756"
       gradientUnits="userSpaceOnUse"
       xlink:href="#white" /><filter
       id="filter4550"
       x="-2.097468"
       y="-0.35022736"
       width="5.1948964"
       height="1.7004547"
       color-interpolation-filters="sRGB"><feGaussianBlur
         stdDeviation="2.4047883"
         id="feGaussianBlur32" /></filter><filter
       id="filter4556"
       x="-4.7167691"
       y="-0.78759204"
       width="10.433471"
       height="2.5751841"
       color-interpolation-filters="sRGB"><feGaussianBlur
         stdDeviation="6.8632318"
         id="feGaussianBlur35" /></filter><filter
       id="filter1334"
       x="-0.08736259"
       y="-0.20625723"
       width="1.1747252"
       height="1.4125145"
       color-interpolation-filters="sRGB"><feGaussianBlur
         stdDeviation="37.801794"
         id="feGaussianBlur38" /></filter><linearGradient
       id="linearGradient1317"
       x1="150.21"
       x2="654.04"
       y1="-8.8577"
       y2="-8.8577"
       gradientTransform="scale(1.5231,0.65657)"
       gradientUnits="userSpaceOnUse"
       xlink:href="#light_blue" /><linearGradient
       id="linearGradient1319"
       x1="160.84"
       x2="591.92"
       y1="44.14"
       y2="44.14"
       gradientTransform="scale(1.6273,0.61453)"
       gradientUnits="userSpaceOnUse"
       xlink:href="#dark_blue" /><linearGradient
       id="linearGradient1321"
       x1="286.95"
       x2="358.15"
       y1="247.18"
       y2="247.18"
       gradientTransform="scale(0.82251,1.2158)"
       gradientUnits="userSpaceOnUse"
       xlink:href="#light_blue" /><linearGradient
       id="linearGradient1323"
       x1="365.3"
       x2="402.36"
       y1="219.1"
       y2="219.1"
       gradientTransform="scale(0.6912,1.4468)"
       gradientUnits="userSpaceOnUse"
       xlink:href="#dark_blue" /><linearGradient
       id="linearGradient1325"
       x1="351.04"
       x2="391.86"
       y1="225.14"
       y2="225.14"
       gradientTransform="scale(0.71423,1.4001)"
       gradientUnits="userSpaceOnUse"
       xlink:href="#white" /><linearGradient
       id="linearGradient1327"
       x1="26.15"
       x2="116.05"
       y1="27.343"
       y2="27.343"
       gradientUnits="userSpaceOnUse"
       xlink:href="#white" /></defs><image
     width="508"
     height="285.75"
     preserveAspectRatio="none"
     xlink:href="screenshot.png"
     id="image931"
     x="-1.4210855e-14"
     y="0" /><g
     stroke-linecap="round"
     stroke-linejoin="round"
     id="g87"><g
       transform="translate(186.55 -143.9)"
       display="none"
       id="g61"><rect
         width="1080"
         height="1080"
         stroke-width=".048"
         id="rect51" /><g
         fill="none"
         id="g59"><path
           transform="matrix(1.0079 0 0 1.0079 -8.734 -.47713)"
           d="m228.69 656.31s29.581-192.7 37.8-239.38c2.2471-12.762 13.171-15.358 24.651-11.732 9.3608 2.9563 32.041 7.8218 41.82 7.7611 45.814-0.28406 154.8-56.126 193.43 49.12 27.749 75.602-22.457 194.9-118.71 194.9-79.034 0-112.07-86.977-42.137-190.05 71.661-105.62 165.85-59.82 191.36-33.642 97.133 99.64 77.401 211.55 45.509 211.55-75.654 0 70.864-297.02 128.3-239.58 57.438 57.438-25.52 182.56 17.85 225.93s158.18-232.64 158.18-232.64"
           display="inline"
           filter="url(#filter1307)"
           stroke="#4fb3ff"
           stroke-width="10"
           style="mix-blend-mode:normal"
           id="path53" /><path
           d="m224.46 664.77s29.581-192.7 37.8-239.38c2.2471-12.762 13.171-15.358 24.651-11.732 9.3608 2.9563 32.041 7.8218 41.82 7.7611 45.814-0.28406 154.8-56.126 193.43 49.12 27.749 75.602-22.457 194.9-118.71 194.9-79.034 0-112.07-86.977-42.137-190.05 71.661-105.62 165.85-59.82 191.36-33.642 97.133 99.64 77.401 211.55 45.509 211.55-75.654 0 70.864-297.02 128.3-239.58 57.438 57.438-25.52 182.56 17.85 225.93s158.18-232.64 158.18-232.64"
           display="inline"
           stroke="#1942ff"
           stroke-width="16"
           id="path55" /><path
           d="m224.46 664.77s29.581-192.7 37.8-239.38c2.2471-12.762 13.171-15.358 24.651-11.732 9.3608 2.9563 32.041 7.8218 41.82 7.7611 45.814-0.28406 154.8-56.126 193.43 49.12 27.749 75.602-22.457 194.9-118.71 194.9-79.034 0-112.07-86.977-42.137-190.05 71.661-105.62 165.85-59.82 191.36-33.642 97.133 99.64 77.401 211.55 45.509 211.55-75.654 0 70.864-297.02 128.3-239.58 57.438 57.438-25.52 182.56 17.85 225.93s158.18-232.64 158.18-232.64"
           display="inline"
           filter="url(#filter1315)"
           stroke="#fff"
           stroke-width="10"
           id="path57" /></g></g><g
       transform="matrix(1.005 0 0 .94533 183.71 -114.86)"
       display="none"
       fill="none"
       stroke-width="1.4162"
       id="g77"><path
         transform="matrix(1.0079 0 0 1.0079 -8.734 -.47713)"
         d="m228.69 656.31s29.581-192.7 37.8-239.38c2.2471-12.762 13.171-15.358 24.651-11.732 9.3608 2.9563 32.041 7.8218 41.82 7.7611 45.814-0.28406 154.8-56.126 193.43 49.12 27.749 75.602-22.457 194.9-118.71 194.9-79.034 0-112.07-86.977-42.137-190.05 71.661-105.62 165.85-59.82 191.36-33.642 97.133 99.64 77.401 211.55 45.509 211.55-75.654 0 70.864-297.02 128.3-239.58 57.438 57.438-25.52 182.56 17.85 225.93s158.18-232.64 158.18-232.64"
         display="inline"
         filter="url(#filter1307)"
         stroke="#4fb3ff"
         stroke-width="14.162"
         style="mix-blend-mode:normal"
         id="path63" /><path
         d="m224.46 664.77s29.581-192.7 37.8-239.38c2.2471-12.762 13.171-15.358 24.651-11.732 9.3608 2.9563 32.041 7.8218 41.82 7.7611 45.814-0.28406 154.8-56.126 193.43 49.12 27.749 75.602-22.457 194.9-118.71 194.9-79.034 0-112.07-86.977-42.137-190.05 71.661-105.62 165.85-59.82 191.36-33.642 97.133 99.64 77.401 211.55 45.509 211.55-75.654 0 70.864-297.02 128.3-239.58 57.438 57.438-25.52 182.56 17.85 225.93s158.18-232.64 158.18-232.64"
         display="inline"
         stroke="#1942ff"
         stroke-width="22.66"
         id="path65" /><path
         d="m224.46 664.77s29.581-192.7 37.8-239.38c2.2471-12.762 13.171-15.358 24.651-11.732 9.3608 2.9563 32.041 7.8218 41.82 7.7611 45.814-0.28406 154.8-56.126 193.43 49.12 27.749 75.602-22.457 194.9-118.71 194.9-79.034 0-112.07-86.977-42.137-190.05 71.661-105.62 165.85-59.82 191.36-33.642 97.133 99.64 77.401 211.55 45.509 211.55-75.654 0 70.864-297.02 128.3-239.58 57.438 57.438-25.52 182.56 17.85 225.93s158.18-232.64 158.18-232.64"
         display="inline"
         filter="url(#filter1315)"
         stroke="#fff"
         stroke-width="14.162"
         id="path67" /><g
         display="inline"
         id="g75"><path
           transform="matrix(.9854 -.18102 .16015 .9854 -67.976 52.092)"
           d="m281.48 322.82s7.0982 3.5136-3.2841 5.5896-9.9244-8.5103-18.289-1.6302c-8.3648 6.8802 11.468 38.794 17.37 39.594s28.908-28.797 22.281-36.946c-6.6261-8.1487-7.7909 2.7336-13.193 0.15038s-1.1658-6.557-1.1658-6.557"
           display="inline"
           filter="url(#filter13045)"
           stroke="#4fb3ff"
           stroke-width="16.415"
           style="mix-blend-mode:normal"
           id="path69" /><path
           d="m258.76 325.35c-9.8982 3.9251-11.142-6.5895-18.283 1.7043-7.1408 8.2939 17.514 36.151 23.457 35.872 5.9432-0.27925 23.874-33.61 16.039-40.44-7.8344-6.8303-7.2394 4.104-12.976 2.5363"
           display="inline"
           stroke="#1942ff"
           stroke-width="16.415"
           id="path71" /><path
           transform="matrix(.9854 -.18102 .16015 .9854 -67.976 52.092)"
           d="m278.2 328.41c-10.382 2.076-9.9244-8.5103-18.289-1.6302-8.3648 6.8802 11.468 38.794 17.37 39.594s28.908-28.797 22.281-36.946c-6.6261-8.1487-7.7909 2.7336-13.193 0.15038"
           display="inline"
           filter="url(#filter13039)"
           stroke="#fff"
           stroke-width="10.259"
           id="path73" /></g></g><g
       transform="translate(186.55 -143.9)"
       display="none"
       stroke-width="16"
       id="g85"><path
         d="m159.24 777.33c7.1419-151.36 14.284-302.72 21.691-384.61s15.079-94.308 32.388-93.248c17.309 1.061 44.253 15.601 65.416 17.413 21.164 1.8128 36.546-9.1009 67.864-14.219 31.319-5.1182 78.571-4.4408 109.29 32.735 30.723 37.176 44.916 110.85 33.342 193.62-11.573 82.775-48.911 174.65-83.575 216.62-34.664 41.969-66.653 34.03-96.367-15.232s-57.152-139.84-57.611-212.97 26.06-128.81 56.642-166.15c30.582-37.334 65.226-56.321 104.27-47.633 39.039 8.6878 82.472 45.049 117.52 100.71s61.702 130.61 71.94 199.48c10.238 68.867 4.0582 131.64-1.4365 160-5.4948 28.358-10.304 22.296-5.8062-29.16 4.4979-51.456 18.303-148.3 33.714-229.01 15.411-80.706 32.426-145.27 44.176-174.06 11.751-28.788 18.236-21.802 41.215 62.87 22.978 84.673 62.447 247.03 84.023 324.96 21.576 77.936 25.258 71.452 46.53-11.804 21.272-83.257 60.133-243.28 98.995-403.31"
         display="inline"
         fill="none"
         stroke="#fff"
         id="path79" /><path
         d="m224.46 664.77s29.581-192.7 37.8-239.38c2.2471-12.762 13.171-15.358 24.651-11.732 9.3608 2.9563 32.041 7.8218 41.82 7.7611 45.814-0.28406 154.8-56.126 193.43 49.12 27.749 75.602-22.457 194.9-118.71 194.9-79.034 0-112.07-86.977-42.137-190.05 71.661-105.62 165.85-59.82 191.36-33.642 97.133 99.64 77.401 211.55 45.509 211.55-75.654 0 70.864-297.02 128.3-239.58 57.438 57.438-25.52 182.56 17.85 225.93s158.18-232.64 158.18-232.64"
         display="none"
         fill="#0ff"
         stroke="#fff"
         id="path81" /><path
         d="m361.31 475.39c71.661-105.62 165.85-59.82 191.36-33.642"
         display="inline"
         fill="none"
         stroke="#008080"
         id="path83" /></g></g><ellipse
     transform="matrix(0.24727135,0.00235376,-0.00283057,0.3173048,118.10539,-65.12972)"
     cx="540.45001"
     cy="648.89001"
     rx="519.23999"
     ry="219.92999"
     filter="url(#filter1334)"
     style="opacity:0.857255;mix-blend-mode:normal;fill:#000000;fill-opacity:1;filter:url(#filter1334)"
     id="ellipse89" /><g
     transform="matrix(0.37452945,0.01121196,-0.01121196,0.37452945,76.270928,-56.057988)"
     id="g113"><g
       transform="translate(-58.85,354.2)"
       id="g100"><g
         stroke-linecap="round"
         id="g97"><use
           transform="matrix(1.0062,0,0,1.0062,-1.5864,-5.7037)"
           filter="url(#filter3126)"
           stroke="url(#linearGradient1317)"
           stroke-width="20"
           style="mix-blend-mode:normal;stroke:url(#linearGradient1317)"
           xlink:href="#path909"
           id="use91" /><use
           transform="translate(0.081154,-1.0132)"
           stroke="url(#linearGradient1319)"
           stroke-width="20"
           xlink:href="#path909"
           id="use93"
           style="stroke:url(#linearGradient1319)" /><use
           transform="translate(0.081154,-1.0132)"
           filter="url(#filter3118)"
           stroke="url(#linearGradient2756)"
           stroke-width="12"
           xlink:href="#path909"
           id="use95"
           style="stroke:url(#linearGradient2756)" /></g><path
         id="path909"
         d="m 271.72,281.4 c 0,0 29.73,-182.17 37.991,-226.29 2.2584,-12.064 13.237,-14.518 24.776,-11.091 9.408,2.7947 32.202,7.3942 42.031,7.3368 46.045,-0.26853 155.58,-53.058 194.41,46.435 27.889,71.469 -22.57,184.25 -119.31,184.25 -79.432,0 -112.63,-82.222 -42.35,-179.66 72.022,-99.851 166.68,-56.55 192.33,-31.803 97.623,94.193 77.792,199.99 45.739,199.99 -76.036,0 71.222,-280.78 128.95,-226.48 57.728,54.298 -25.648,172.58 17.94,213.58 43.588,40.999 158.98,-219.92 158.98,-219.92"
         fill="none" /></g><g
       transform="rotate(5.6948,357.59,360.98)"
       id="g111"><g
         stroke-linecap="round"
         id="g108"><use
           filter="url(#filter4556)"
           stroke="url(#linearGradient1321)"
           stroke-width="20"
           style="mix-blend-mode:normal;stroke:url(#linearGradient1321)"
           xlink:href="#path4537"
           id="use102" /><use
           stroke="url(#linearGradient1323)"
           stroke-width="20"
           xlink:href="#path4537"
           id="use104"
           style="stroke:url(#linearGradient1323)" /><use
           filter="url(#filter4550)"
           stroke="url(#linearGradient1325)"
           stroke-width="12"
           style="mix-blend-mode:normal;stroke:url(#linearGradient1325)"
           xlink:href="#path4537"
           id="use106" /></g><path
         id="path4537"
         d="m 263.8,360.6 c -3.4908,-4.7509 0.74095,-22.167 4.308,-33.611"
         fill="none" /></g></g><g
     transform="translate(186.55 -143.9)"
     display="none"
     stroke-width=".26458"
     id="g123"><rect
       x="275.2"
       y="27.343"
       width="89.898"
       height="89.898"
       fill="url(#linearGradient2753)"
       id="rect117" /><rect
       x="150.97"
       y="27.343"
       width="89.898"
       height="89.898"
       fill="url(#linearGradient2747)"
       id="rect119" /><rect
       x="26.15"
       y="27.343"
       width="89.898"
       height="89.898"
       fill="url(#linearGradient1327)"
       id="rect121" /></g></svg>
